<svg width="96" height="28" viewBox="0 0 96 28" fill="none" xmlns="http://www.w3.org/2000/svg">
<g id="Layer_1" clip-path="url(#clip0_1755_11857)">
<path id="Vector" d="M28.2385 20.7439V23.0096H24.2266V4.38464H28.2385V11.2103C29.177 9.51595 30.7388 8.47536 32.4581 8.47536C36.1566 8.47536 38.5011 11.3929 38.5011 15.926C38.5011 20.4592 36.0527 23.3767 32.4044 23.3767C30.7119 23.3767 29.1734 22.3612 28.2367 20.7457L28.2385 20.7439ZM31.2599 20.1457C33.0581 20.1457 34.2295 18.4532 34.2295 15.926C34.2295 13.3989 33.0581 11.7064 31.2599 11.7064C29.5674 11.7064 28.2385 13.4777 28.2385 15.4568V16.5243C28.2385 18.5033 29.6713 20.1457 31.2599 20.1457Z" fill="#13002A"/>
<path id="Vector_2" d="M48.27 20.4572C47.5411 22.1247 46.1602 23.3748 43.8408 23.3748C41.1847 23.3748 39.6211 21.7862 39.6211 19.4936C39.6211 16.6799 42.2522 14.3874 48.2181 13.7373C48.1662 12.2256 47.5142 11.3928 46.1871 11.3928C44.6504 11.3928 43.2963 12.3564 42.331 14.2316L39.4922 12.1218C41.2635 9.7773 43.7638 8.47522 46.6044 8.47522C50.6933 8.47522 52.2569 10.637 52.2569 13.8411V19.7802C52.2569 20.4321 52.4646 20.7187 53.0127 20.7187C53.3261 20.7187 53.6127 20.6668 54.0801 20.511L53.559 23.0112C53.0646 23.2459 52.3088 23.3766 51.6049 23.3766C49.7817 23.3766 48.5315 22.413 48.27 20.459V20.4572ZM45.1966 20.1187C46.7602 20.1187 48.2181 18.8417 48.2181 16.5492V16.3146C45.4832 16.6531 43.8157 17.434 43.8157 18.8417C43.8157 19.6226 44.3369 20.1187 45.1966 20.1187Z" fill="#13002A"/>
<path id="Vector_3" d="M55.25 8.8388H59.287V12.1737C60.2255 9.98506 61.6834 8.47522 63.1431 8.47522C63.9759 8.47522 64.6278 8.76179 65.2278 9.30805L63.6123 12.8776C63.0123 12.4352 62.5968 12.2256 61.9198 12.2256C60.7735 12.2256 59.2888 13.3719 59.2888 16.2107V20.1707C59.2888 21.3689 59.3407 22.2017 59.4715 23.0094H55.2518V8.8388H55.25Z" fill="#13002A"/>
<path id="Vector_4" d="M66.3984 8.8388H70.4354V12.1737C71.3739 9.98506 72.8318 8.47522 74.2915 8.47522C75.1243 8.47522 75.7763 8.76179 76.3763 9.30805L74.7608 12.8776C74.1608 12.4352 73.7452 12.2256 73.0682 12.2256C71.922 12.2256 70.4372 13.3719 70.4372 16.2107V20.1707C70.4372 21.3689 70.4892 22.2017 70.6199 23.0094H66.4002V8.8388H66.3984Z" fill="#13002A"/>
<path id="Vector_5" d="M75.7539 16.2644C75.7539 11.6274 78.5676 8.47522 82.7085 8.47522C87.3186 8.47522 89.1419 11.9391 89.0899 16.8375H79.8948C80.0775 19.0262 81.2237 20.459 82.8392 20.459C84.4547 20.459 85.4953 19.182 85.9646 17.776L89.2207 19.8071C87.632 22.3342 85.2876 23.3766 82.8392 23.3766C78.6966 23.3766 75.7539 20.6668 75.7539 16.2644ZM85.0529 14.1797C84.8452 12.4603 84.0894 11.3409 82.7085 11.3409C81.3276 11.3409 80.416 12.3564 80.0506 14.1797H85.0529Z" fill="#13002A"/>
<path id="Vector_6" d="M90.9414 4.38464H94.9533V19.6245C94.9533 20.6669 95.0053 21.8382 95.1611 23.0114H90.9414V4.38464Z" fill="#13002A"/>
<path id="Vector_7" d="M14.1327 4.6069L16.4807 13.9883L14.1309 23.3948H6.95063L4.60259 14.0009L6.95063 4.6069H14.1327ZM14.6682 0.666626H6.4169C4.92318 0.666626 3.6211 1.68393 3.25931 3.13288L0.75187 13.1627C0.61396 13.7125 0.61396 14.2892 0.75187 14.8391L3.25931 24.8688C3.6211 26.3178 4.92318 27.3351 6.4169 27.3351H14.6682C16.1619 27.3351 17.464 26.3178 17.8258 24.8688L20.3458 14.7782C20.4747 14.2606 20.4747 13.7179 20.3458 13.1985L17.8276 3.13288C17.4658 1.68393 16.1637 0.668417 14.67 0.668417L14.6682 0.666626Z" fill="#13002A"/>
</g>
<defs>
<clipPath id="clip0_1755_11857">
<rect width="94.5127" height="26.6667" fill="white" transform="translate(0.648438 0.666626)"/>
</clipPath>
</defs>
</svg>
