<svg width="16" height="16" viewBox="0 0 16 16" fill="none" xmlns="http://www.w3.org/2000/svg">
<mask id="mask0_1417_18729" style="mask-type:alpha" maskUnits="userSpaceOnUse" x="0" y="0" width="16" height="16">
<rect width="16" height="16" fill="#D9D9D9"/>
</mask>
<g mask="url(#mask0_1417_18729)">
<path d="M3.33333 14.6661C2.96667 14.6661 2.65278 14.5355 2.39167 14.2744C2.13056 14.0133 2 13.6994 2 13.3328V3.99943C2 3.63276 2.13056 3.31887 2.39167 3.05776C2.65278 2.79665 2.96667 2.6661 3.33333 2.6661H4V1.99943C4 1.81054 4.06389 1.65221 4.19167 1.52443C4.31944 1.39665 4.47778 1.33276 4.66667 1.33276C4.85556 1.33276 5.01389 1.39665 5.14167 1.52443C5.26944 1.65221 5.33333 1.81054 5.33333 1.99943V2.6661H10.6667V1.99943C10.6667 1.81054 10.7306 1.65221 10.8583 1.52443C10.9861 1.39665 11.1444 1.33276 11.3333 1.33276C11.5222 1.33276 11.6806 1.39665 11.8083 1.52443C11.9361 1.65221 12 1.81054 12 1.99943V2.6661H12.6667C13.0333 2.6661 13.3472 2.79665 13.6083 3.05776C13.8694 3.31887 14 3.63276 14 3.99943V13.3328C14 13.6994 13.8694 14.0133 13.6083 14.2744C13.3472 14.5355 13.0333 14.6661 12.6667 14.6661H3.33333ZM3.33333 13.3328H12.6667V6.6661H3.33333V13.3328ZM3.33333 5.33276H12.6667V3.99943H3.33333V5.33276ZM8 9.33276C7.81111 9.33276 7.65278 9.26887 7.525 9.1411C7.39722 9.01332 7.33333 8.85499 7.33333 8.6661C7.33333 8.47721 7.39722 8.31887 7.525 8.1911C7.65278 8.06332 7.81111 7.99943 8 7.99943C8.18889 7.99943 8.34722 8.06332 8.475 8.1911C8.60278 8.31887 8.66667 8.47721 8.66667 8.6661C8.66667 8.85499 8.60278 9.01332 8.475 9.1411C8.34722 9.26887 8.18889 9.33276 8 9.33276ZM5.33333 9.33276C5.14444 9.33276 4.98611 9.26887 4.85833 9.1411C4.73056 9.01332 4.66667 8.85499 4.66667 8.6661C4.66667 8.47721 4.73056 8.31887 4.85833 8.1911C4.98611 8.06332 5.14444 7.99943 5.33333 7.99943C5.52222 7.99943 5.68056 8.06332 5.80833 8.1911C5.93611 8.31887 6 8.47721 6 8.6661C6 8.85499 5.93611 9.01332 5.80833 9.1411C5.68056 9.26887 5.52222 9.33276 5.33333 9.33276ZM10.6667 9.33276C10.4778 9.33276 10.3194 9.26887 10.1917 9.1411C10.0639 9.01332 10 8.85499 10 8.6661C10 8.47721 10.0639 8.31887 10.1917 8.1911C10.3194 8.06332 10.4778 7.99943 10.6667 7.99943C10.8556 7.99943 11.0139 8.06332 11.1417 8.1911C11.2694 8.31887 11.3333 8.47721 11.3333 8.6661C11.3333 8.85499 11.2694 9.01332 11.1417 9.1411C11.0139 9.26887 10.8556 9.33276 10.6667 9.33276ZM8 11.9994C7.81111 11.9994 7.65278 11.9355 7.525 11.8078C7.39722 11.68 7.33333 11.5217 7.33333 11.3328C7.33333 11.1439 7.39722 10.9855 7.525 10.8578C7.65278 10.73 7.81111 10.6661 8 10.6661C8.18889 10.6661 8.34722 10.73 8.475 10.8578C8.60278 10.9855 8.66667 11.1439 8.66667 11.3328C8.66667 11.5217 8.60278 11.68 8.475 11.8078C8.34722 11.9355 8.18889 11.9994 8 11.9994ZM5.33333 11.9994C5.14444 11.9994 4.98611 11.9355 4.85833 11.8078C4.73056 11.68 4.66667 11.5217 4.66667 11.3328C4.66667 11.1439 4.73056 10.9855 4.85833 10.8578C4.98611 10.73 5.14444 10.6661 5.33333 10.6661C5.52222 10.6661 5.68056 10.73 5.80833 10.8578C5.93611 10.9855 6 11.1439 6 11.3328C6 11.5217 5.93611 11.68 5.80833 11.8078C5.68056 11.9355 5.52222 11.9994 5.33333 11.9994ZM10.6667 11.9994C10.4778 11.9994 10.3194 11.9355 10.1917 11.8078C10.0639 11.68 10 11.5217 10 11.3328C10 11.1439 10.0639 10.9855 10.1917 10.8578C10.3194 10.73 10.4778 10.6661 10.6667 10.6661C10.8556 10.6661 11.0139 10.73 11.1417 10.8578C11.2694 10.9855 11.3333 11.1439 11.3333 11.3328C11.3333 11.5217 11.2694 11.68 11.1417 11.8078C11.0139 11.9355 10.8556 11.9994 10.6667 11.9994Z" fill="white"/>
</g>
</svg>
