<svg width="108" height="40" viewBox="0 0 108 40" fill="none" xmlns="http://www.w3.org/2000/svg">
<g clip-path="url(#clip0_1417_18689)">
<path d="M34.258 26.7448V29.0104H30.2461V10.3855H34.258V17.2111C35.1965 15.5168 36.7583 14.4762 38.4777 14.4762C42.1762 14.4762 44.5206 17.3938 44.5206 21.9269C44.5206 26.46 42.0723 29.3776 38.4239 29.3776C36.7314 29.3776 35.1929 28.3621 34.2562 26.7466L34.258 26.7448ZM37.2795 26.1466C39.0777 26.1466 40.249 24.454 40.249 21.9269C40.249 19.3998 39.0777 17.7072 37.2795 17.7072C35.587 17.7072 34.258 19.4786 34.258 21.4577V22.5251C34.258 24.5042 35.6908 26.1466 37.2795 26.1466Z" fill="white"/>
<path d="M54.2896 26.4573C53.5606 28.1248 52.1797 29.3749 49.8603 29.3749C47.2042 29.3749 45.6407 27.7863 45.6407 25.4938C45.6407 22.6801 48.2717 20.3875 54.2376 19.7374C54.1857 18.2258 53.5337 17.3929 52.2066 17.3929C50.6699 17.3929 49.3159 18.3565 48.3505 20.2317L45.5117 18.1219C47.283 15.7774 49.7833 14.4753 52.6239 14.4753C56.7128 14.4753 58.2764 16.6371 58.2764 19.8413V25.7803C58.2764 26.4323 58.4842 26.7188 59.0322 26.7188C59.3456 26.7188 59.6322 26.6669 60.0997 26.5111L59.5785 29.0114C59.0842 29.246 58.3283 29.3767 57.6245 29.3767C55.8012 29.3767 54.5511 28.4131 54.2896 26.4591V26.4573ZM51.2162 26.1188C52.7797 26.1188 54.2376 24.8418 54.2376 22.5493V22.3147C51.5027 22.6532 49.8353 23.4341 49.8353 24.8418C49.8353 25.6227 50.3565 26.1188 51.2162 26.1188Z" fill="white"/>
<path d="M61.2695 14.8389H65.3065V18.1738C66.245 15.9852 67.7029 14.4753 69.1626 14.4753C69.9954 14.4753 70.6474 14.7619 71.2474 15.3082L69.6319 18.8777C69.0319 18.4353 68.6163 18.2258 67.9393 18.2258C66.7931 18.2258 65.3083 19.372 65.3083 22.2108V26.1708C65.3083 27.369 65.3602 28.2018 65.491 29.0096H61.2713V14.8389H61.2695Z" fill="white"/>
<path d="M72.418 14.8389H76.455V18.1738C77.3935 15.9852 78.8514 14.4753 80.311 14.4753C81.1439 14.4753 81.7958 14.7619 82.3958 15.3082L80.7803 18.8777C80.1803 18.4353 79.7648 18.2258 79.0878 18.2258C77.9415 18.2258 76.4567 19.372 76.4567 22.2108V26.1708C76.4567 27.369 76.5087 28.2018 76.6394 29.0096H72.4198V14.8389H72.418Z" fill="white"/>
<path d="M81.7734 22.2645C81.7734 17.6276 84.5872 14.4753 88.728 14.4753C93.3381 14.4753 95.1614 17.9392 95.1095 22.8377H85.9143C86.097 25.0263 87.2432 26.4591 88.8588 26.4591C90.4743 26.4591 91.5149 25.1821 91.9841 23.7762L95.2402 25.8072C93.6516 28.3343 91.3071 29.3767 88.8588 29.3767C84.7161 29.3767 81.7734 26.6669 81.7734 22.2645ZM91.0725 20.1798C90.8647 18.4604 90.1089 17.341 88.728 17.341C87.3471 17.341 86.4355 18.3565 86.0701 20.1798H91.0725Z" fill="white"/>
<path d="M96.9609 10.3855H100.973V25.6254C100.973 26.6678 101.025 27.8391 101.181 29.0122H96.9609V10.3855Z" fill="white"/>
<path d="M20.1522 10.607L22.5002 19.9884L20.1504 29.3949H12.9702L10.6221 20.001L12.9702 10.607H20.1522ZM20.6877 6.66675H12.4364C10.9427 6.66675 9.64063 7.68405 9.27885 9.133L6.7714 19.1628C6.63349 19.7126 6.63349 20.2893 6.7714 20.8392L9.27885 30.869C9.64063 32.3179 10.9427 33.3352 12.4364 33.3352H20.6877C22.1814 33.3352 23.4835 32.3179 23.8453 30.869L26.3653 20.7783C26.4942 20.2607 26.4942 19.718 26.3653 19.1986L23.8471 9.133C23.4853 7.68405 22.1832 6.66854 20.6895 6.66854L20.6877 6.66675Z" fill="white"/>
</g>
<defs>
<clipPath id="clip0_1417_18689">
<rect width="94.5127" height="26.6667" fill="white" transform="translate(6.66797 6.66675)"/>
</clipPath>
</defs>
</svg>
