<svg width="48" height="48" viewBox="0 0 48 48" fill="none" xmlns="http://www.w3.org/2000/svg">
<g filter="url(#filter0_d_1417_18567)">
<rect x="2" y="1" width="44" height="44" rx="8" fill="white"/>
<rect x="2.5" y="1.5" width="43" height="43" rx="7.5" stroke="#D0D5DD"/>
<g clip-path="url(#clip0_1417_18567)">
<path d="M32.5195 13H15.4766C14.6602 13 14 13.6445 14 14.4414V31.5547C14 32.3516 14.6602 33 15.4766 33H32.5195C33.3359 33 34 32.3516 34 31.5586V14.4414C34 13.6445 33.3359 13 32.5195 13ZM19.9336 30.043H16.9648V20.4961H19.9336V30.043ZM18.4492 19.1953C17.4961 19.1953 16.7266 18.4258 16.7266 17.4766C16.7266 16.5273 17.4961 15.7578 18.4492 15.7578C19.3984 15.7578 20.168 16.5273 20.168 17.4766C20.168 18.4219 19.3984 19.1953 18.4492 19.1953ZM31.043 30.043H28.0781V25.4023C28.0781 24.2969 28.0586 22.8711 26.5352 22.8711C24.9922 22.8711 24.7578 24.0781 24.7578 25.3242V30.043H21.7969V20.4961H24.6406V21.8008H24.6797C25.0742 21.0508 26.043 20.2578 27.4844 20.2578C30.4883 20.2578 31.043 22.2344 31.043 24.8047V30.043Z" fill="#98A2B3"/>
</g>
</g>
<defs>
<filter id="filter0_d_1417_18567" x="0" y="0" width="48" height="48" filterUnits="userSpaceOnUse" color-interpolation-filters="sRGB">
<feFlood flood-opacity="0" result="BackgroundImageFix"/>
<feColorMatrix in="SourceAlpha" type="matrix" values="0 0 0 0 0 0 0 0 0 0 0 0 0 0 0 0 0 0 127 0" result="hardAlpha"/>
<feOffset dy="1"/>
<feGaussianBlur stdDeviation="1"/>
<feColorMatrix type="matrix" values="0 0 0 0 0.0627451 0 0 0 0 0.0941176 0 0 0 0 0.156863 0 0 0 0.05 0"/>
<feBlend mode="normal" in2="BackgroundImageFix" result="effect1_dropShadow_1417_18567"/>
<feBlend mode="normal" in="SourceGraphic" in2="effect1_dropShadow_1417_18567" result="shape"/>
</filter>
<clipPath id="clip0_1417_18567">
<rect width="20" height="20" fill="white" transform="translate(14 13)"/>
</clipPath>
</defs>
</svg>
