<svg width="19" height="19" viewBox="0 0 19 19" fill="none" xmlns="http://www.w3.org/2000/svg">
<g id="svg-418651717_499">
<path id="Vector" d="M12.38 2.5C16.2 2.5 16.5 2.8 16.5 6.62V12.38C16.5 16.2 16.2 16.5 12.38 16.5H6.62C2.8 16.5 2.5 16.2 2.5 12.38V6.62C2.5 2.8 2.8 2.5 6.62 2.5H12.38ZM7.06 13.35V7.655H5.29V13.35H7.06ZM6.175 6.84C6.3133 6.84417 6.45102 6.82051 6.58 6.77043C6.70898 6.72036 6.82658 6.64488 6.92583 6.54848C7.02508 6.45209 7.10396 6.33673 7.15778 6.20927C7.21159 6.0818 7.23925 5.94483 7.23912 5.80647C7.23899 5.66811 7.21106 5.53119 7.157 5.40383C7.10293 5.27647 7.02383 5.16127 6.9244 5.06506C6.82496 4.96886 6.70721 4.89361 6.57813 4.84378C6.44906 4.79395 6.31129 4.77056 6.173 4.775C6.03734 4.77513 5.90304 4.80198 5.77776 4.85402C5.65249 4.90605 5.53868 4.98225 5.44285 5.07827C5.24931 5.27218 5.14073 5.53503 5.141 5.809C5.14126 6.08297 5.25035 6.34561 5.44427 6.53915C5.63818 6.73269 5.90103 6.84027 6.175 6.84ZM13.7 13.35V10.226C13.7 8.693 13.369 7.513 11.576 7.513C10.716 7.513 10.138 7.985 9.902 8.433H9.878V7.655H8.18V13.35H9.949V10.533C9.949 9.79 10.091 9.07 11.012 9.07C11.919 9.07 11.932 9.92 11.932 10.58V13.35H13.7Z" fill="white"/>
</g>
</svg>
