<svg width="121" height="50" viewBox="0 0 121 50" fill="none" xmlns="http://www.w3.org/2000/svg">
<g style="mix-blend-mode:luminosity">
<g clip-path="url(#clip0_1439_14048)">
<path d="M47.1404 22.3384V30.1603H44.3305V22.9902C44.3305 21.1434 43.3579 20.1656 41.7368 20.1656C40.1156 20.1656 38.9269 21.252 38.9269 23.2075V30.0516H36.117V17.8843H38.6026L38.9269 19.4052C39.7915 18.2102 41.1964 17.5583 42.9255 17.5583C45.3032 17.5583 47.1404 19.5138 47.1404 22.3384ZM49.4099 23.9679C49.4099 20.2743 52.3278 17.4497 56.0023 17.4497C59.6767 17.4497 62.5947 20.1656 62.5947 23.8593C62.5947 27.553 59.5687 30.3775 56.0023 30.3775C52.3278 30.3775 49.4099 27.6616 49.4099 23.9679ZM59.7848 23.9679C59.7848 21.6865 58.1637 20.057 56.0023 20.057C53.8408 20.057 52.2198 21.6865 52.2198 23.9679C52.2198 26.2493 53.8408 27.8789 56.0023 27.8789C58.1637 27.8789 59.7848 26.2493 59.7848 23.9679ZM83.3448 22.2298V30.1603H80.4265V22.9902C80.4265 21.1434 79.4541 20.1656 78.049 20.1656C76.5358 20.1656 75.4554 21.252 75.4554 23.2075V30.1603H72.6457V22.9902C72.6457 21.1434 71.6727 20.1656 70.2675 20.1656C68.7549 20.1656 67.6741 21.252 67.6741 23.2075V30.1603H64.8642V17.8843H67.2418L67.566 19.4052C68.4306 18.3188 69.7273 17.5583 71.2405 17.5583C72.8617 17.5583 74.2663 18.4274 74.9151 19.9484C75.6714 18.5361 77.1846 17.5583 79.0219 17.5583C81.5075 17.5583 83.3448 19.4052 83.3448 22.2298ZM99.6634 23.9679C99.6634 27.7702 96.8537 30.3775 93.5032 30.3775C91.6658 30.3775 90.1533 29.6171 89.0722 28.3135L88.7481 30.1603H86.2626V12.7783L89.0722 12.4524V19.6225C90.0452 18.3188 91.5578 17.667 93.3951 17.667C96.9617 17.5583 99.6634 20.1656 99.6634 23.9679ZM96.8537 23.9679C96.8537 21.6865 95.2324 20.057 93.179 20.057C91.1256 20.057 89.3964 21.6865 89.3964 23.9679C89.3964 26.2493 91.1256 27.8789 93.179 27.8789C95.2324 27.8789 96.8537 26.2493 96.8537 23.9679ZM111.876 17.8843H114.361V30.1603H111.876L111.552 28.3135C110.579 29.7257 108.957 30.4862 107.121 30.4862C103.77 30.4862 101.069 27.8789 101.069 24.0766C101.069 20.2743 103.77 17.667 107.229 17.667C109.066 17.667 110.579 18.4274 111.66 19.7311L111.876 17.8843ZM111.444 23.9679C111.444 21.6865 109.714 20.057 107.661 20.057C105.607 20.057 103.986 21.6865 103.986 23.9679C103.986 26.2493 105.607 27.8789 107.661 27.8789C109.714 27.8789 111.444 26.2493 111.444 23.9679ZM20.0142 22.5557L22.1757 21.252L24.3371 19.9484L26.4986 18.6447L28.66 17.3411V12.3438L26.4986 13.6474L24.3371 14.951L22.1757 16.2547L20.0142 17.5583L17.8528 18.862V21.3606L15.6914 20.057L13.5299 18.7534L11.2604 17.4497L9.09895 16.1461L6.9375 14.8424V19.8397L9.09895 21.1434L11.2604 22.447L13.4218 23.7507L15.5833 25.0543L17.7447 26.358L15.5833 27.6616L13.4218 28.9652L11.2604 30.2689L9.09895 31.5725L6.9375 32.6589V37.6562L9.09895 36.3526L11.2604 35.0489L13.4218 33.7453L15.5833 32.4417L17.7447 31.138V28.6393L19.9061 29.943L22.0676 31.2466L24.229 32.5503L26.3905 33.8539L28.552 35.1576V30.1603L26.3905 28.8566L24.229 27.553L22.0676 26.2493L19.9061 24.9457L17.7447 23.642L20.0142 22.5557Z" fill="white"/>
</g>
</g>
<defs>
<clipPath id="clip0_1439_14048">
<rect width="107.424" height="25.3125" fill="white" transform="translate(6.9375 12.3438)"/>
</clipPath>
</defs>
</svg>
