<svg width="83" height="50" viewBox="0 0 83 50" fill="none" xmlns="http://www.w3.org/2000/svg">
<mask id="mask0_1439_14051" style="mask-type:luminance" maskUnits="userSpaceOnUse" x="6" y="12" width="71" height="26">
<path d="M76.1545 12.4034H6.69531V37.2103H76.1545V12.4034Z" fill="white"/>
</mask>
<g mask="url(#mask0_1439_14051)">
<path d="M22.6535 27.7445C23.8485 26.0874 24.5207 24.1038 24.5207 22.045C24.5207 21.9697 24.5207 21.8943 24.5207 21.819C24.446 19.2831 23.4253 16.9229 21.6328 15.1402C19.8403 13.3827 17.4752 12.4034 14.9607 12.4034C12.6454 12.4034 10.4297 13.2571 8.68698 14.7887C8.31354 15.1151 8.28864 15.6926 8.63718 16.0441L10.1309 17.5506L7.79073 19.9108C7.46708 20.2372 7.46708 20.7896 7.79073 21.116L8.5625 21.8943C7.3426 23.5263 6.69531 25.535 6.69531 27.5939C6.69531 30.1298 7.66625 32.5151 9.40895 34.3229C11.1516 36.1307 13.5168 37.1601 16.0064 37.2103C16.081 37.2103 16.1557 37.2103 16.2553 37.2103C18.5706 37.2103 20.7863 36.3566 22.529 34.825C22.9025 34.4986 22.9274 33.9211 22.5788 33.5696L21.0851 32.0631L23.4253 29.703C23.7489 29.3765 23.7489 28.8242 23.4253 28.4978L22.6535 27.7445ZM19.2677 32.6908L20.6868 34.122C19.3922 35.0259 17.8486 35.5029 16.2553 35.5029C16.2055 35.5029 16.1308 35.5029 16.0561 35.5029C13.9898 35.4527 12.0728 34.599 10.6288 33.1177C9.18489 31.6363 8.38823 29.6527 8.38823 27.5688C8.38823 25.9619 8.86125 24.4052 9.7575 23.0995L16.3051 29.703L17.1018 30.5064L17.5499 30.9584L18.7449 29.7532L18.2967 29.3012L9.65791 20.5636L9.60812 20.5134L11.9483 18.1532C12.272 17.8268 12.272 17.2744 11.9483 16.948L10.5293 15.5169C11.8239 14.613 13.3674 14.1359 14.9607 14.1359C17.0271 14.1359 18.9689 14.9394 20.4627 16.3956C21.9315 17.8519 22.778 19.7853 22.8278 21.8692C22.8278 21.9194 22.8278 21.9948 22.8278 22.045C22.8278 23.6519 22.3548 25.2086 21.4585 26.5142L17.8984 22.9489L14.0894 19.1073L13.6412 18.6554L12.4214 19.8606L17.4254 24.9073L21.6079 29.1255L19.2677 31.4857C18.944 31.8121 18.944 32.3393 19.2677 32.6908Z" fill="white"/>
<path d="M31.4453 24.8324C31.4453 20.3381 34.2834 17.3502 38.5407 17.3502C42.7979 17.3502 45.6358 20.3381 45.6358 24.8324C45.6358 29.3268 42.7979 32.3147 38.5407 32.3147C34.2834 32.3147 31.4453 29.3017 31.4453 24.8324ZM42.3746 24.8324C42.3746 21.945 40.831 20.0368 38.5407 20.0368C36.2502 20.0368 34.7067 21.945 34.7067 24.8324C34.7067 27.7199 36.2502 29.6281 38.5407 29.6281C40.831 29.6281 42.3746 27.6948 42.3746 24.8324Z" fill="white"/>
<path d="M58.1059 32.0886H54.6702L51.0605 27.9458L50.2639 28.7743V32.0886H47.2266V17.5259H50.2387V21.4176C50.2387 24.5561 50.1891 25.1085 50.1891 25.1085H50.2387L53.7241 21.4176H57.4337L52.8528 26.1129L58.1059 32.0886Z" fill="white"/>
<path d="M65.8019 21.4176V24.4808H65.7272C65.7272 24.4808 65.5281 24.4054 64.8558 24.4054C63.0632 24.4054 61.8185 25.5102 61.8185 27.7699V32.0885H58.7812V21.4176H61.7934V23.4011H61.8433C62.2914 22.3717 63.4617 21.3171 65.2044 21.3171C65.4782 21.3422 65.6276 21.3422 65.8019 21.4176Z" fill="white"/>
<path d="M75.828 29.9295V25.3598C75.828 22.8741 74.1104 21.2421 71.0731 21.2421C68.2845 21.2421 66.3927 22.8239 66.3927 24.933H69.43C69.43 24.0291 70.0275 23.4265 71.1475 23.4265C72.1931 23.4265 72.8158 24.0291 72.8158 25.5355L70.9236 25.6611C68.0107 25.8871 66.0938 26.7408 66.0938 29.126C66.0938 30.5321 66.8904 31.5866 68.1602 32.0386C68.6082 32.1892 69.0814 32.2896 69.629 32.2896C70.1767 32.2896 70.7494 32.2143 71.2722 32.0386C71.9941 31.7875 72.6164 31.3607 73.0149 30.6827H73.0648C73.0648 31.21 73.2139 31.7875 73.3386 32.0386H76.1517V31.913C75.9027 31.6117 75.828 31.5364 75.828 29.9295ZM72.8158 27.6949C72.8158 29.1511 71.9693 30.1052 70.6995 30.1052C69.8281 30.1052 69.2557 29.6031 69.2557 28.875C69.2557 28.1468 69.8532 27.72 70.8737 27.6195L72.8158 27.4438V27.6949Z" fill="white"/>
</g>
</svg>
