<svg width="2879" height="972" viewBox="0 0 2879 972" fill="none" xmlns="http://www.w3.org/2000/svg">
<path d="M330.306 758.356C330.764 757.335 329.78 756.348 328.762 756.807C328.542 756.909 328.372 757.08 328.27 757.301C327.795 758.322 328.796 759.308 329.814 758.849C330.035 758.747 330.205 758.577 330.306 758.356Z" fill="white" fill-opacity="0.2"/>
<path d="M1146.87 817.462C1147.33 816.441 1146.34 815.455 1145.32 815.914C1145.1 816.016 1144.93 816.186 1144.83 816.407C1144.37 817.428 1145.35 818.415 1146.38 817.956C1146.6 817.854 1146.77 817.683 1146.87 817.462Z" fill="white" fill-opacity="0.2"/>
<path d="M970.595 720.037C971.054 719.017 970.069 718.03 969.051 718.489C968.831 718.591 968.661 718.761 968.559 718.983C968.084 720.003 969.085 720.99 970.103 720.531C970.324 720.429 970.494 720.259 970.595 720.037Z" fill="white" fill-opacity="0.2"/>
<path d="M731.175 251.944C731.65 250.923 730.649 249.936 729.631 250.396C729.411 250.498 729.241 250.668 729.139 250.889C728.681 251.91 729.665 252.897 730.683 252.437C730.904 252.335 731.073 252.165 731.175 251.944Z" fill="white" fill-opacity="0.2"/>
<path d="M878.831 225.74C879.307 224.722 878.305 223.721 877.287 224.196C877.067 224.298 876.897 224.467 876.795 224.688C876.337 225.706 877.321 226.69 878.339 226.232C878.56 226.13 878.73 225.961 878.831 225.74Z" fill="white" fill-opacity="0.2"/>
<path d="M2600.58 15.3041C2601.04 14.2833 2600.05 13.2965 2599.03 13.7559C2598.81 13.8579 2598.64 14.0281 2598.54 14.2493C2598.08 15.27 2599.07 16.2568 2600.09 15.7975C2600.31 15.6954 2600.48 15.5252 2600.58 15.3041Z" fill="white" fill-opacity="0.4"/>
<path d="M1839.01 858.711C1839.47 857.69 1838.48 856.703 1837.46 857.163C1837.24 857.265 1837.07 857.435 1836.97 857.656C1836.51 858.677 1837.49 859.664 1838.52 859.204C1838.74 859.102 1838.91 858.932 1839.01 858.711Z" fill="white" fill-opacity="0.4"/>
<path d="M2041.27 916.961C2041.74 915.94 2040.74 914.953 2039.72 915.412C2039.5 915.514 2039.33 915.685 2039.23 915.906C2038.77 916.927 2039.76 917.913 2040.78 917.454C2041 917.352 2041.17 917.182 2041.27 916.961Z" fill="white" fill-opacity="0.2"/>
<path d="M2458.94 684.557C2459.42 683.536 2458.41 682.549 2457.4 683.009C2457.18 683.111 2457.01 683.281 2456.9 683.502C2456.45 684.523 2457.43 685.509 2458.45 685.05C2458.67 684.948 2458.84 684.778 2458.94 684.557Z" fill="white" fill-opacity="0.2"/>
<path d="M2555.4 315.082C2555.88 314.061 2554.88 313.075 2553.86 313.534C2553.64 313.636 2553.47 313.806 2553.37 314.027C2552.91 315.048 2553.89 316.035 2554.91 315.576C2555.13 315.473 2555.3 315.303 2555.4 315.082Z" fill="white" fill-opacity="0.2"/>
<path d="M2456.88 36.2879C2457.33 35.2672 2456.35 34.2804 2455.33 34.7398C2455.11 34.8418 2454.94 35.012 2454.84 35.2331C2454.37 36.2539 2455.37 37.2407 2456.38 36.7813C2456.61 36.6793 2456.77 36.5091 2456.88 36.2879Z" fill="white" fill-opacity="0.2"/>
<path d="M2627.86 103.964C2628.32 102.943 2627.33 101.956 2626.31 102.416C2626.09 102.518 2625.92 102.688 2625.82 102.909C2625.36 103.93 2626.35 104.917 2627.37 104.457C2627.59 104.355 2627.76 104.185 2627.86 103.964Z" fill="white" fill-opacity="0.2"/>
<path d="M2441.44 158.524C2441.92 157.503 2440.91 156.516 2439.9 156.976C2439.68 157.078 2439.51 157.248 2439.4 157.469C2438.95 158.49 2439.93 159.477 2440.95 159.017C2441.17 158.915 2441.34 158.745 2441.44 158.524Z" fill="white" fill-opacity="0.2"/>
<path d="M2445.99 401.771C2446.46 400.75 2445.46 399.763 2444.44 400.223C2444.22 400.325 2444.05 400.495 2443.95 400.716C2443.49 401.737 2444.48 402.724 2445.5 402.264C2445.72 402.162 2445.89 401.992 2445.99 401.771Z" fill="white" fill-opacity="0.2"/>
<path d="M2805.17 440.418C2805.63 439.397 2804.65 438.41 2803.63 438.869C2803.41 438.971 2803.24 439.142 2803.14 439.363C2802.66 440.384 2803.66 441.37 2804.68 440.911C2804.9 440.809 2805.07 440.639 2805.17 440.418Z" fill="white" fill-opacity="0.2"/>
<path d="M897.853 460.878C898.311 459.857 897.327 458.87 896.309 459.329C896.089 459.431 895.919 459.602 895.817 459.823C895.342 460.844 896.343 461.83 897.361 461.371C897.582 461.269 897.751 461.099 897.853 460.878Z" fill="white" fill-opacity="0.2"/>
<path d="M1473 799.604C1473.46 798.583 1472.47 797.597 1471.45 798.056C1471.23 798.158 1471.06 798.328 1470.96 798.549C1470.5 799.57 1471.49 800.557 1472.51 800.098C1472.73 799.995 1472.9 799.825 1473 799.604Z" fill="white" fill-opacity="0.2"/>
<path d="M1164.68 711.037C1165.16 710.017 1164.16 709.03 1163.14 709.489C1162.92 709.591 1162.75 709.761 1162.65 709.983C1162.19 711.003 1163.17 711.99 1164.19 711.531C1164.41 711.429 1164.58 711.259 1164.68 711.037Z" fill="white" fill-opacity="0.2"/>
<path d="M586.064 846.838C586.522 845.817 585.538 844.83 584.52 845.29C584.299 845.392 584.13 845.562 584.028 845.783C583.553 846.804 584.554 847.791 585.572 847.331C585.793 847.229 585.962 847.059 586.064 846.838Z" fill="white" fill-opacity="0.2"/>
<path d="M1954.95 19.8507C1955.42 18.8299 1954.42 17.8431 1953.4 18.3025C1953.18 18.4046 1953.01 18.5747 1952.91 18.7959C1952.45 19.8167 1953.44 20.8034 1954.46 20.3441C1954.68 20.242 1954.85 20.0719 1954.95 19.8507Z" fill="white" fill-opacity="0.4"/>
<path d="M902.4 922.364C902.858 921.343 901.874 920.357 900.856 920.816C900.635 920.918 900.466 921.088 900.364 921.309C899.889 922.33 900.89 923.317 901.908 922.858C902.129 922.755 902.298 922.585 902.4 922.364Z" fill="white" fill-opacity="0.4"/>
<path d="M602.308 124.424C602.783 123.403 601.782 122.416 600.764 122.876C600.543 122.978 600.374 123.148 600.272 123.369C599.814 124.39 600.798 125.377 601.816 124.917C602.037 124.815 602.206 124.645 602.308 124.424Z" fill="white" fill-opacity="0.2"/>
<path d="M881.939 40.3107C882.397 39.2899 881.413 38.3031 880.395 38.7625C880.174 38.8645 880.005 39.0347 879.903 39.2558C879.428 40.2766 880.429 41.2634 881.447 40.804C881.668 40.702 881.837 40.5318 881.939 40.3107Z" fill="white" fill-opacity="0.4"/>
<path d="M224.947 633.651C225.406 632.63 224.419 631.643 223.398 632.103C223.177 632.205 223.007 632.375 222.905 632.596C222.446 633.617 223.432 634.603 224.453 634.144C224.674 634.042 224.845 633.872 224.947 633.651Z" fill="white" fill-opacity="0.4"/>
<path d="M360.48 588.517C360.955 587.496 359.954 586.51 358.936 586.969C358.715 587.071 358.546 587.241 358.444 587.462C357.986 588.483 358.97 589.47 359.988 589.011C360.208 588.909 360.378 588.738 360.48 588.517Z" fill="white" fill-opacity="0.2"/>
<path d="M379.533 324.477C379.992 323.457 379.005 322.47 377.984 322.929C377.763 323.031 377.593 323.201 377.491 323.423C377.032 324.443 378.018 325.43 379.039 324.971C379.26 324.869 379.43 324.699 379.533 324.477Z" fill="white" fill-opacity="0.2"/>
<path d="M363.619 444.964C364.077 443.943 363.093 442.956 362.075 443.416C361.854 443.518 361.684 443.688 361.583 443.909C361.108 444.93 362.109 445.917 363.127 445.457C363.347 445.355 363.517 445.185 363.619 444.964Z" fill="white" fill-opacity="0.2"/>
<path d="M567.986 931.862C568.444 930.841 567.46 929.854 566.442 930.313C566.221 930.416 566.052 930.586 565.95 930.807C565.475 931.828 566.476 932.814 567.494 932.355C567.715 932.253 567.884 932.083 567.986 931.862Z" fill="white" fill-opacity="0.4"/>
<path d="M878.048 592.118C878.508 591.097 877.521 590.11 876.5 590.57C876.279 590.672 876.109 590.842 876.007 591.063C875.547 592.084 876.534 593.071 877.555 592.611C877.776 592.509 877.946 592.339 878.048 592.118Z" fill="white" fill-opacity="0.2"/>
<path d="M801.65 500.949C802.109 499.929 801.122 498.942 800.102 499.401C799.88 499.503 799.71 499.673 799.608 499.895C799.149 500.915 800.136 501.902 801.156 501.443C801.378 501.341 801.548 501.171 801.65 500.949Z" fill="white" fill-opacity="0.4"/>
<path d="M498.469 334.065C499.489 334.523 500.476 333.539 500.017 332.521C499.915 332.3 499.745 332.13 499.523 332.028C498.503 331.553 497.516 332.554 497.975 333.573C498.077 333.793 498.247 333.963 498.469 334.065Z" fill="white" fill-opacity="0.4"/>
<path d="M594.119 675.801C594.577 674.78 593.593 673.793 592.575 674.253C592.354 674.355 592.184 674.525 592.083 674.746C591.608 675.767 592.609 676.754 593.627 676.294C593.847 676.192 594.017 676.022 594.119 675.801Z" fill="white" fill-opacity="0.2"/>
<path d="M1311.6 774.598C1312.05 773.577 1311.07 772.59 1310.05 773.049C1309.83 773.151 1309.66 773.322 1309.56 773.543C1309.08 774.564 1310.09 775.55 1311.1 775.091C1311.32 774.989 1311.49 774.819 1311.6 774.598Z" fill="white" fill-opacity="0.2"/>
<path d="M1627.59 949.64C1628.05 948.622 1627.06 947.638 1626.04 948.096C1625.82 948.197 1625.65 948.367 1625.55 948.588C1625.08 949.606 1626.08 950.607 1627.1 950.132C1627.32 950.03 1627.49 949.86 1627.59 949.64Z" fill="white" fill-opacity="0.2"/>
<path d="M1473 879.171C1473.46 878.15 1472.47 877.163 1471.45 877.623C1471.23 877.725 1471.06 877.895 1470.96 878.116C1470.5 879.137 1471.49 880.124 1472.51 879.664C1472.73 879.562 1472.9 879.392 1473 879.171Z" fill="white" fill-opacity="0.4"/>
<path d="M2160.59 563.093C2161.05 562.072 2160.06 561.086 2159.04 561.545C2158.82 561.647 2158.65 561.817 2158.55 562.038C2158.08 563.059 2159.08 564.046 2160.1 563.587C2160.32 563.484 2160.49 563.314 2160.59 563.093Z" fill="white" fill-opacity="0.4"/>
<path d="M862.502 201.238C862.96 200.217 861.976 199.23 860.958 199.69C860.737 199.792 860.567 199.962 860.465 200.183C859.99 201.204 860.991 202.191 862.01 201.731C862.23 201.629 862.4 201.459 862.502 201.238Z" fill="white" fill-opacity="0.2"/>
<path d="M2323.92 244.964C2324.37 243.943 2323.39 242.956 2322.37 243.416C2322.15 243.518 2321.98 243.688 2321.88 243.909C2321.4 244.93 2322.41 245.917 2323.42 245.457C2323.64 245.355 2323.81 245.185 2323.92 244.964Z" fill="white" fill-opacity="0.2"/>
<path d="M2357.38 57.2142C2357.84 56.1961 2356.86 55.212 2355.84 55.6701C2355.62 55.7719 2355.45 55.9416 2355.35 56.1622C2354.87 57.1803 2355.87 58.1814 2356.89 57.7063C2357.11 57.6044 2357.28 57.4348 2357.38 57.2142Z" fill="white" fill-opacity="0.2"/>
<path d="M2200.69 471.081C2201.15 470.06 2200.16 469.073 2199.15 469.532C2198.92 469.635 2198.75 469.805 2198.65 470.026C2198.18 471.047 2199.18 472.033 2200.2 471.574C2200.42 471.472 2200.59 471.302 2200.69 471.081Z" fill="white" fill-opacity="0.2"/>
<path d="M220.4 19.8463C220.858 18.8282 219.874 17.8441 218.856 18.3022C218.635 18.404 218.466 18.5737 218.364 18.7943C217.889 19.8123 218.89 20.8134 219.908 20.3383C220.129 20.2365 220.298 20.0668 220.4 19.8463Z" fill="white" fill-opacity="0.2"/>
<path d="M2638.73 177.442C2637.71 176.967 2636.72 177.968 2637.18 178.986C2637.28 179.206 2637.45 179.376 2637.67 179.478C2638.69 179.936 2639.68 178.952 2639.22 177.934C2639.12 177.713 2638.95 177.544 2638.73 177.442Z" fill="white" fill-opacity="0.2"/>
<path d="M1493.46 44.8575C1493.93 43.8368 1492.93 42.85 1491.91 43.3093C1491.69 43.4114 1491.52 43.5815 1491.42 43.8027C1490.96 44.8235 1491.95 45.8103 1492.96 45.3509C1493.19 45.2488 1493.35 45.0787 1493.46 44.8575Z" fill="white" fill-opacity="0.2"/>
<path d="M1147.12 639.228C1147.58 638.207 1146.59 637.22 1145.57 637.679C1145.35 637.782 1145.18 637.952 1145.08 638.173C1144.62 639.194 1145.6 640.18 1146.63 639.721C1146.85 639.619 1147.02 639.449 1147.12 639.228Z" fill="white" fill-opacity="0.2"/>
<path d="M1284.49 72.8878C1284.95 71.8697 1283.97 70.8856 1282.95 71.3437C1282.73 71.4455 1282.56 71.6152 1282.46 71.8358C1281.98 72.8538 1282.98 73.8549 1284 73.3798C1284.22 73.278 1284.39 73.1084 1284.49 72.8878Z" fill="white" fill-opacity="0.2"/>
<path d="M2261.85 710.944C2262.32 709.923 2261.32 708.937 2260.3 709.396C2260.08 709.498 2259.91 709.668 2259.81 709.889C2259.35 710.91 2260.34 711.897 2261.36 711.438C2261.58 711.336 2261.75 711.165 2261.85 710.944Z" fill="white" fill-opacity="0.4"/>
<path d="M327.605 106.579C328.08 105.558 327.079 104.572 326.061 105.031C325.84 105.133 325.671 105.303 325.569 105.524C325.111 106.545 326.095 107.532 327.113 107.073C327.333 106.971 327.503 106.8 327.605 106.579Z" fill="white" fill-opacity="0.4"/>
<path d="M2.15756 131.244C2.61692 130.223 1.63014 129.236 0.609336 129.696C0.388161 129.798 0.218065 129.968 0.115984 130.189C-0.343378 131.21 0.643354 132.197 1.66416 131.737C1.88533 131.635 2.05548 131.465 2.15756 131.244Z" fill="white" fill-opacity="0.2"/>
<path d="M337.158 215.73C337.617 214.71 336.63 213.723 335.609 214.182C335.388 214.284 335.218 214.454 335.116 214.676C334.657 215.696 335.643 216.683 336.664 216.224C336.885 216.122 337.055 215.952 337.158 215.73Z" fill="white" fill-opacity="0.2"/>
<path d="M1024.34 74.4108C1024.8 73.39 1023.81 72.4032 1022.79 72.8626C1022.57 72.9646 1022.4 73.1348 1022.3 73.356C1021.84 74.3768 1022.82 75.3635 1023.84 74.9041C1024.07 74.8021 1024.24 74.6319 1024.34 74.4108Z" fill="white" fill-opacity="0.2"/>
<path d="M1080.6 971.392C1081.08 970.371 1080.08 969.384 1079.06 969.844C1078.84 969.946 1078.67 970.116 1078.57 970.337C1078.11 971.358 1079.09 972.345 1080.11 971.885C1080.33 971.783 1080.5 971.613 1080.6 971.392V971.392Z" fill="white" fill-opacity="0.2"/>
<path d="M2536.92 940.551C2537.38 939.53 2536.4 938.543 2535.37 939.003C2535.15 939.105 2534.98 939.275 2534.88 939.496C2534.42 940.517 2535.41 941.504 2536.43 941.044C2536.65 940.942 2536.82 940.772 2536.92 940.551Z" fill="white" fill-opacity="0.2"/>
<path d="M1817.83 154.999C1818.29 153.978 1817.3 152.991 1816.29 153.45C1816.07 153.553 1815.9 153.723 1815.79 153.944C1815.32 154.965 1816.32 155.951 1817.34 155.492C1817.56 155.39 1817.73 155.22 1817.83 154.999Z" fill="white" fill-opacity="0.2"/>
<path d="M1909.64 87.2072C1910.12 86.1864 1909.12 85.1996 1908.1 85.6589C1907.88 85.761 1907.71 85.9312 1907.61 86.1523C1907.15 87.1731 1908.13 88.1599 1909.15 87.7005C1909.37 87.5984 1909.54 87.4283 1909.64 87.2072Z" fill="white" fill-opacity="0.2"/>
<path d="M415.908 529.078C416.366 528.057 415.382 527.07 414.364 527.529C414.143 527.631 413.974 527.802 413.872 528.023C413.397 529.044 414.398 530.03 415.416 529.571C415.636 529.469 415.806 529.299 415.908 529.078Z" fill="white" fill-opacity="0.2"/>
<path d="M981.126 196.931C981.586 195.91 980.599 194.923 979.578 195.383C979.357 195.485 979.187 195.655 979.085 195.876C978.625 196.897 979.612 197.884 980.633 197.424C980.854 197.322 981.024 197.152 981.126 196.931Z" fill="white" fill-opacity="0.2"/>
<path d="M2034.07 714.288C2034.54 713.267 2033.54 712.28 2032.52 712.74C2032.3 712.842 2032.13 713.012 2032.03 713.233C2031.57 714.254 2032.56 715.24 2033.57 714.781C2033.79 714.679 2033.96 714.509 2034.07 714.288Z" fill="white" fill-opacity="0.2"/>
<path d="M2523.28 592.731C2523.75 591.71 2522.75 590.723 2521.73 591.183C2521.51 591.285 2521.34 591.455 2521.24 591.676C2520.78 592.697 2521.77 593.684 2522.78 593.224C2523.01 593.122 2523.18 592.952 2523.28 592.731Z" fill="white" fill-opacity="0.4"/>
<path d="M2550.72 462.041C2551.18 461.02 2550.19 460.033 2549.17 460.492C2548.95 460.595 2548.78 460.765 2548.68 460.986C2548.22 462.007 2549.21 462.993 2550.23 462.534C2550.45 462.432 2550.62 462.262 2550.72 462.041Z" fill="white" fill-opacity="0.2"/>
<path d="M820.788 381.311C820.328 380.29 821.315 379.303 822.336 379.762C822.557 379.865 822.727 380.035 822.829 380.256C823.289 381.277 822.302 382.263 821.281 381.804C821.06 381.702 820.89 381.532 820.788 381.311Z" fill="white" fill-opacity="0.2"/>
<path d="M1545.98 849.618C1545.52 848.597 1546.51 847.61 1547.53 848.069C1547.75 848.171 1547.92 848.342 1548.02 848.563C1548.48 849.584 1547.5 850.57 1546.48 850.111C1546.26 850.009 1546.09 849.839 1545.98 849.618Z" fill="white" fill-opacity="0.2"/>
<path d="M686.663 815.464C686.204 814.443 687.189 813.457 688.207 813.916C688.427 814.018 688.597 814.188 688.699 814.409C689.174 815.43 688.173 816.417 687.155 815.958C686.934 815.856 686.764 815.685 686.663 815.464Z" fill="white" fill-opacity="0.2"/>
<path d="M1332.29 854.164C1331.83 853.143 1332.82 852.157 1333.84 852.616C1334.06 852.718 1334.23 852.888 1334.33 853.109C1334.79 854.13 1333.8 855.117 1332.78 854.658C1332.56 854.555 1332.39 854.385 1332.29 854.164Z" fill="white" fill-opacity="0.2"/>
<path d="M1625.55 885.986C1625.09 884.968 1626.07 883.984 1627.09 884.442C1627.31 884.544 1627.48 884.714 1627.58 884.934C1628.06 885.952 1627.06 886.954 1626.04 886.478C1625.82 886.377 1625.65 886.207 1625.55 885.986Z" fill="white" fill-opacity="0.2"/>
<path d="M590.967 620.153C590.509 619.132 591.493 618.145 592.511 618.605C592.732 618.707 592.902 618.877 593.003 619.098C593.478 620.119 592.477 621.106 591.459 620.646C591.239 620.544 591.069 620.374 590.967 620.153Z" fill="white" fill-opacity="0.2"/>
<path d="M462.094 250.188C463.114 249.713 464.101 250.714 463.642 251.732C463.54 251.953 463.37 252.123 463.148 252.225C462.128 252.683 461.141 251.699 461.6 250.68C461.702 250.46 461.872 250.29 462.094 250.188Z" fill="white" fill-opacity="0.2"/>
<path d="M259.272 593.281C258.814 592.261 259.798 591.274 260.816 591.733C261.037 591.835 261.206 592.005 261.308 592.227C261.783 593.247 260.782 594.234 259.764 593.775C259.543 593.673 259.374 593.503 259.272 593.281Z" fill="white" fill-opacity="0.2"/>
<path d="M2089.97 72.5192C2089.49 71.4984 2090.49 70.5116 2091.51 70.971C2091.73 71.073 2091.9 71.2432 2092 71.4643C2092.46 72.4851 2091.48 73.4719 2090.46 73.0125C2090.24 72.9105 2090.07 72.7403 2089.97 72.5192Z" fill="white" fill-opacity="0.4"/>
<path d="M2351.89 684.7C2351.41 683.682 2352.41 682.681 2353.43 683.156C2353.65 683.258 2353.82 683.428 2353.92 683.648C2354.38 684.667 2353.4 685.651 2352.38 685.193C2352.16 685.091 2351.99 684.921 2351.89 684.7Z" fill="white" fill-opacity="0.2"/>
<path d="M2435.49 785.893C2435.01 784.872 2436.01 783.886 2437.03 784.345C2437.25 784.447 2437.42 784.617 2437.53 784.838C2437.98 785.859 2437 786.846 2435.98 786.387C2435.76 786.284 2435.59 786.114 2435.49 785.893Z" fill="white" fill-opacity="0.4"/>
<path d="M2641.73 288.104C2641.27 287.083 2642.25 286.097 2643.27 286.556C2643.49 286.658 2643.66 286.828 2643.76 287.049C2644.24 288.07 2643.24 289.057 2642.22 288.598C2642 288.495 2641.83 288.325 2641.73 288.104Z" fill="white" fill-opacity="0.2"/>
<path d="M2588.15 223.705C2587.68 222.684 2588.68 221.697 2589.7 222.157C2589.92 222.259 2590.09 222.429 2590.19 222.65C2590.65 223.671 2589.66 224.657 2588.65 224.198C2588.42 224.096 2588.25 223.926 2588.15 223.705Z" fill="white" fill-opacity="0.4"/>
<path d="M2430.32 531.351C2429.84 530.33 2430.84 529.343 2431.86 529.803C2432.08 529.905 2432.25 530.075 2432.35 530.296C2432.81 531.317 2431.83 532.303 2430.81 531.844C2430.59 531.742 2430.42 531.572 2430.32 531.351Z" fill="white" fill-opacity="0.2"/>
<path d="M1732.4 1.66419C1731.94 0.643395 1732.92 -0.343378 1733.94 0.115979C1734.16 0.218058 1734.33 0.388179 1734.43 0.609351C1734.91 1.63015 1733.91 2.61692 1732.89 2.15756C1732.67 2.05548 1732.5 1.88536 1732.4 1.66419Z" fill="white" fill-opacity="0.2"/>
<path d="M1678.66 25.4808C1678.2 24.46 1679.19 23.4733 1680.21 23.9326C1680.43 24.0347 1680.6 24.2049 1680.7 24.426C1681.16 25.4468 1680.18 26.4336 1679.16 25.9742C1678.94 25.8721 1678.76 25.702 1678.66 25.4808Z" fill="white" fill-opacity="0.2"/>
<path d="M425.147 774.593C424.688 773.572 425.675 772.586 426.695 773.045C426.917 773.147 427.087 773.317 427.189 773.538C427.648 774.559 426.661 775.546 425.641 775.087C425.419 774.984 425.249 774.814 425.147 774.593Z" fill="white" fill-opacity="0.2"/>
<path d="M147.887 494.979C147.412 493.961 148.413 492.96 149.431 493.435C149.652 493.537 149.822 493.706 149.923 493.927C150.382 494.945 149.397 495.929 148.379 495.471C148.159 495.369 147.989 495.2 147.887 494.979Z" fill="white" fill-opacity="0.2"/>
<path d="M227.434 448.196C226.959 447.176 227.96 446.189 228.978 446.648C229.199 446.75 229.369 446.92 229.47 447.142C229.929 448.162 228.944 449.149 227.926 448.69C227.706 448.588 227.536 448.418 227.434 448.196Z" fill="white" fill-opacity="0.4"/>
<path d="M625.647 499.866C625.189 498.845 626.173 497.859 627.191 498.318C627.412 498.42 627.581 498.59 627.683 498.811C628.158 499.832 627.157 500.819 626.139 500.359C625.918 500.257 625.749 500.087 625.647 499.866Z" fill="white" fill-opacity="0.2"/>
<path d="M52.4047 256.277C51.9466 255.257 52.9307 254.27 53.9488 254.729C54.1694 254.831 54.3391 255.001 54.4409 255.223C54.916 256.243 53.9149 257.23 52.8968 256.771C52.6762 256.669 52.5065 256.499 52.4047 256.277Z" fill="white" fill-opacity="0.2"/>
<path d="M2687.04 388.033C2686.58 387.012 2687.56 386.026 2688.58 386.485C2688.8 386.587 2688.97 386.757 2689.07 386.978C2689.55 387.999 2688.55 388.986 2687.53 388.526C2687.31 388.424 2687.14 388.254 2687.04 388.033Z" fill="white" fill-opacity="0.2"/>
<path d="M2789.54 309.586C2788.52 310.045 2787.53 309.059 2787.99 308.038C2788.09 307.817 2788.26 307.646 2788.48 307.544C2789.51 307.085 2790.49 308.072 2790.03 309.093C2789.93 309.314 2789.76 309.484 2789.54 309.586Z" fill="white" fill-opacity="0.4"/>
<path d="M2734.21 236.305C2733.19 236.78 2732.2 235.779 2732.66 234.761C2732.76 234.54 2732.94 234.371 2733.16 234.269C2734.18 233.811 2735.16 234.795 2734.7 235.813C2734.6 236.034 2734.43 236.203 2734.21 236.305Z" fill="white" fill-opacity="0.2"/>
<path d="M1843.4 43.5609C1842.94 42.5401 1843.92 41.5534 1844.95 42.0127C1845.17 42.1148 1845.34 42.2849 1845.44 42.5061C1845.9 43.5269 1844.91 44.5136 1843.89 44.0543C1843.67 43.9522 1843.5 43.7821 1843.4 43.5609Z" fill="white" fill-opacity="0.2"/>
<path d="M478.131 465.215C477.673 464.195 478.657 463.208 479.675 463.667C479.896 463.769 480.066 463.939 480.167 464.161C480.643 465.181 479.641 466.168 478.623 465.709C478.403 465.607 478.233 465.437 478.131 465.215Z" fill="white" fill-opacity="0.2"/>
<path d="M1150.42 26.6708C1149.96 25.65 1150.95 24.6632 1151.97 25.1226C1152.19 25.2247 1152.36 25.3948 1152.46 25.6159C1152.92 26.6367 1151.93 27.6235 1150.91 27.1642C1150.69 27.0621 1150.52 26.892 1150.42 26.6708Z" fill="white" fill-opacity="0.2"/>
<path d="M1030.73 158.52C1030.27 157.499 1031.25 156.512 1032.27 156.971C1032.49 157.074 1032.66 157.244 1032.76 157.465C1033.24 158.486 1032.24 159.472 1031.22 159.013C1031 158.911 1030.83 158.741 1030.73 158.52Z" fill="white" fill-opacity="0.2"/>
<path d="M1245.17 159.163C1244.71 158.143 1245.7 157.156 1246.72 157.615C1246.94 157.717 1247.11 157.887 1247.21 158.109C1247.67 159.129 1246.68 160.116 1245.66 159.657C1245.44 159.555 1245.27 159.385 1245.17 159.163Z" fill="white" fill-opacity="0.2"/>
<path d="M871.999 824.149C871.539 823.128 872.526 822.141 873.547 822.601C873.768 822.703 873.938 822.873 874.04 823.094C874.5 824.115 873.513 825.102 872.492 824.642C872.271 824.54 872.101 824.37 871.999 824.149Z" fill="white" fill-opacity="0.2"/>
<path d="M2420.09 835.938C2419.62 834.917 2420.62 833.93 2421.63 834.389C2421.86 834.491 2422.02 834.662 2422.13 834.883C2422.58 835.904 2421.6 836.89 2420.58 836.431C2420.36 836.329 2420.19 836.159 2420.09 835.938Z" fill="white" fill-opacity="0.4"/>
<path d="M1259.55 879.171C1259.09 878.15 1260.07 877.163 1261.09 877.623C1261.32 877.725 1261.49 877.895 1261.59 878.116C1262.05 879.137 1261.06 880.124 1260.04 879.664C1259.82 879.562 1259.65 879.392 1259.55 879.171Z" fill="white" fill-opacity="0.2"/>
<path d="M1414.13 945.098C1413.67 944.077 1414.66 943.09 1415.68 943.549C1415.9 943.651 1416.07 943.822 1416.17 944.043C1416.63 945.063 1415.65 946.05 1414.63 945.591C1414.4 945.489 1414.23 945.319 1414.13 945.098Z" fill="white" fill-opacity="0.4"/>
<path d="M1690.52 789.969C1690.06 788.948 1691.05 787.962 1692.07 788.421C1692.29 788.523 1692.46 788.693 1692.56 788.914C1693.02 789.935 1692.04 790.922 1691.02 790.462C1690.79 790.36 1690.62 790.19 1690.52 789.969Z" fill="white" fill-opacity="0.4"/>
<path d="M1141.33 890.537C1140.87 889.517 1141.85 888.53 1142.88 888.989C1143.1 889.091 1143.27 889.261 1143.37 889.483C1143.83 890.503 1142.84 891.49 1141.82 891.031C1141.6 890.929 1141.43 890.759 1141.33 890.537Z" fill="white" fill-opacity="0.4"/>
<path d="M1234.54 970.104C1234.08 969.083 1235.06 968.097 1236.08 968.556C1236.3 968.658 1236.47 968.828 1236.57 969.049C1237.05 970.07 1236.05 971.057 1235.03 970.598C1234.81 970.496 1234.64 970.325 1234.54 970.104V970.104Z" fill="white" fill-opacity="0.2"/>
<path d="M611.639 192.624C611.181 191.603 612.165 190.617 613.183 191.076C613.404 191.178 613.573 191.348 613.675 191.569C614.15 192.59 613.149 193.577 612.131 193.118C611.911 193.015 611.741 192.845 611.639 192.624Z" fill="white" fill-opacity="0.2"/>
<path d="M1949.13 804.115C1948.67 803.095 1949.66 802.108 1950.68 802.567C1950.9 802.669 1951.07 802.839 1951.17 803.061C1951.64 804.081 1950.64 805.068 1949.62 804.609C1949.4 804.507 1949.23 804.337 1949.13 804.115Z" fill="white" fill-opacity="0.2"/>
<path d="M1870.82 775.139C1870.35 774.118 1871.35 773.132 1872.37 773.591C1872.59 773.693 1872.76 773.863 1872.86 774.084C1873.32 775.105 1872.33 776.092 1871.32 775.633C1871.1 775.531 1870.93 775.36 1870.82 775.139Z" fill="white" fill-opacity="0.2"/>
<path d="M2268.91 365.399C2268.44 364.381 2269.44 363.38 2270.45 363.855C2270.68 363.957 2270.85 364.127 2270.95 364.347C2271.41 365.365 2270.42 366.349 2269.4 365.891C2269.18 365.789 2269.01 365.62 2268.91 365.399Z" fill="white" fill-opacity="0.2"/>
<path d="M2113.49 132.399C2113.03 131.378 2114.02 130.391 2115.04 130.85C2115.26 130.952 2115.43 131.123 2115.53 131.344C2115.99 132.365 2115.01 133.351 2113.98 132.892C2113.76 132.79 2113.59 132.62 2113.49 132.399Z" fill="white" fill-opacity="0.4"/>
<path d="M1993.83 163.071C1993.37 162.05 1994.35 161.063 1995.37 161.523C1995.59 161.625 1995.76 161.795 1995.86 162.016C1996.34 163.037 1995.34 164.024 1994.32 163.564C1994.1 163.462 1993.93 163.292 1993.83 163.071Z" fill="white" fill-opacity="0.2"/>
<path d="M2157.16 803.387C2156.7 802.366 2157.68 801.38 2158.7 801.839C2158.92 801.941 2159.09 802.111 2159.2 802.332C2159.66 803.353 2158.67 804.34 2157.65 803.88C2157.43 803.778 2157.26 803.608 2157.16 803.387Z" fill="white" fill-opacity="0.2"/>
<path d="M2126.64 212.764C2126.16 211.743 2127.16 210.757 2128.18 211.216C2128.4 211.318 2128.57 211.488 2128.67 211.709C2129.13 212.73 2128.15 213.717 2127.13 213.258C2126.91 213.156 2126.74 212.985 2126.64 212.764Z" fill="white" fill-opacity="0.2"/>
<path d="M2255.26 124.42C2254.81 123.401 2255.79 122.417 2256.81 122.875C2257.03 122.977 2257.2 123.147 2257.3 123.367C2257.78 124.386 2256.77 125.387 2255.76 124.912C2255.54 124.81 2255.37 124.64 2255.26 124.42Z" fill="white" fill-opacity="0.2"/>
<path d="M2361.08 554.684C2360.63 553.663 2361.61 552.676 2362.63 553.136C2362.85 553.238 2363.02 553.408 2363.12 553.629C2363.6 554.65 2362.59 555.636 2361.58 555.177C2361.36 555.075 2361.19 554.905 2361.08 554.684Z" fill="white" fill-opacity="0.2"/>
<path d="M2302.45 446.15C2301.99 445.129 2302.98 444.142 2304 444.601C2304.22 444.703 2304.39 444.874 2304.49 445.095C2304.95 446.116 2303.97 447.102 2302.95 446.643C2302.72 446.541 2302.55 446.371 2302.45 446.15Z" fill="white" fill-opacity="0.2"/>
<path d="M2559.9 706.398C2559.42 705.377 2560.42 704.39 2561.44 704.849C2561.66 704.951 2561.83 705.122 2561.93 705.343C2562.39 706.364 2561.41 707.35 2560.39 706.891C2560.17 706.789 2560 706.619 2559.9 706.398Z" fill="white" fill-opacity="0.2"/>
<path d="M2250.72 617.737C2250.26 616.717 2251.24 615.73 2252.26 616.189C2252.48 616.291 2252.65 616.461 2252.75 616.683C2253.23 617.703 2252.23 618.69 2251.21 618.231C2250.99 618.129 2250.82 617.959 2250.72 617.737Z" fill="white" fill-opacity="0.2"/>
<path d="M2629.69 635.196C2629.24 634.175 2630.22 633.188 2631.24 633.648C2631.46 633.75 2631.63 633.92 2631.73 634.141C2632.21 635.162 2631.2 636.149 2630.19 635.689C2629.97 635.587 2629.8 635.417 2629.69 635.196Z" fill="white" fill-opacity="0.2"/>
<path d="M468.077 635.369C467.618 634.348 468.603 633.362 469.621 633.821C469.841 633.923 470.011 634.093 470.113 634.314C470.588 635.335 469.587 636.322 468.569 635.863C468.348 635.761 468.178 635.59 468.077 635.369Z" fill="white" fill-opacity="0.2"/>
<path d="M2271.55 813.338C2271.09 812.317 2272.08 811.33 2273.1 811.789C2273.32 811.891 2273.49 812.062 2273.6 812.283C2274.05 813.303 2273.07 814.29 2272.05 813.831C2271.83 813.729 2271.66 813.559 2271.55 813.338Z" fill="white" fill-opacity="0.2"/>
<path d="M1727.85 879.171C1727.39 878.15 1728.38 877.163 1729.4 877.623C1729.62 877.725 1729.79 877.895 1729.89 878.116C1730.35 879.137 1729.36 880.124 1728.34 879.664C1728.12 879.562 1727.95 879.392 1727.85 879.171Z" fill="white" fill-opacity="0.2"/>
<path d="M2236.75 922.768C2236.27 921.747 2237.27 920.761 2238.29 921.22C2238.51 921.322 2238.68 921.492 2238.78 921.713C2239.24 922.734 2238.26 923.721 2237.24 923.262C2237.02 923.159 2236.85 922.989 2236.75 922.768Z" fill="white" fill-opacity="0.4"/>
<path d="M1941.64 235.818C1942.12 234.797 1941.12 233.81 1940.1 234.269C1939.88 234.371 1939.71 234.541 1939.61 234.763C1939.15 235.783 1940.13 236.77 1941.15 236.311C1941.37 236.209 1941.54 236.039 1941.64 235.818Z" fill="white" fill-opacity="0.4"/>
<path d="M2216.72 465.424C2217.18 464.403 2216.19 463.417 2215.17 463.876C2214.95 463.978 2214.78 464.148 2214.68 464.369C2214.22 465.39 2215.21 466.377 2216.23 465.918C2216.45 465.815 2216.62 465.645 2216.72 465.424Z" fill="white" fill-opacity="0.2"/>
<path d="M2115.29 310.766C2114.81 309.746 2115.81 308.759 2116.83 309.218C2117.05 309.32 2117.22 309.49 2117.32 309.712C2117.78 310.732 2116.8 311.719 2115.78 311.26C2115.56 311.158 2115.39 310.988 2115.29 310.766Z" fill="white" fill-opacity="0.4"/>
<path d="M2099.89 360.811C2099.41 359.79 2100.41 358.803 2101.43 359.263C2101.65 359.365 2101.82 359.535 2101.92 359.756C2102.38 360.777 2101.4 361.764 2100.38 361.304C2100.16 361.202 2099.99 361.032 2099.89 360.811Z" fill="white" fill-opacity="0.4"/>
<path d="M2239.69 231.271C2239.22 230.25 2240.22 229.263 2241.24 229.723C2241.46 229.825 2241.63 229.995 2241.73 230.216C2242.19 231.237 2241.2 232.224 2240.18 231.764C2239.96 231.662 2239.79 231.492 2239.69 231.271Z" fill="white" fill-opacity="0.2"/>
<path d="M1951.36 338.211C1950.9 337.19 1951.89 336.203 1952.91 336.662C1953.13 336.764 1953.3 336.935 1953.4 337.156C1953.86 338.177 1952.87 339.163 1951.85 338.704C1951.63 338.602 1951.46 338.432 1951.36 338.211Z" fill="white" fill-opacity="0.2"/>
<path d="M1916.54 447.641C1916.07 446.621 1917.07 445.634 1918.09 446.093C1918.31 446.195 1918.48 446.365 1918.58 446.587C1919.04 447.607 1918.05 448.594 1917.04 448.135C1916.82 448.033 1916.65 447.863 1916.54 447.641Z" fill="white" fill-opacity="0.4"/>
<path d="M2110.18 663.231C2109.71 662.21 2110.71 661.223 2111.73 661.683C2111.95 661.785 2112.12 661.955 2112.22 662.176C2112.68 663.197 2111.69 664.184 2110.68 663.724C2110.46 663.622 2110.29 663.452 2110.18 663.231Z" fill="white" fill-opacity="0.2"/>
<path d="M2693.6 534.21C2693.14 533.19 2694.13 532.203 2695.14 532.662C2695.36 532.764 2695.53 532.934 2695.64 533.155C2696.11 534.176 2695.11 535.163 2694.09 534.704C2693.87 534.602 2693.7 534.431 2693.6 534.21Z" fill="white" fill-opacity="0.2"/>
<path d="M2877.43 174.925C2876.41 175.4 2875.42 174.399 2875.88 173.381C2875.98 173.16 2876.15 172.991 2876.37 172.889C2877.4 172.431 2878.38 173.415 2877.92 174.433C2877.82 174.654 2877.65 174.823 2877.43 174.925Z" fill="white" fill-opacity="0.2"/>
<path d="M1764.71 319.931C1765.17 318.91 1764.18 317.923 1763.16 318.383C1762.94 318.485 1762.77 318.655 1762.67 318.876C1762.21 319.897 1763.2 320.884 1764.22 320.424C1764.44 320.322 1764.61 320.152 1764.71 319.931Z" fill="white" fill-opacity="0.4"/>
<path d="M1719.53 619.709C1720.01 618.688 1719.01 617.701 1717.99 618.161C1717.77 618.263 1717.6 618.433 1717.5 618.654C1717.04 619.675 1718.02 620.662 1719.04 620.202C1719.26 620.1 1719.43 619.93 1719.53 619.709Z" fill="white" fill-opacity="0.2"/>
<path d="M1621.01 340.915C1621.47 339.894 1620.48 338.907 1619.47 339.366C1619.24 339.469 1619.08 339.639 1618.97 339.86C1618.5 340.881 1619.5 341.867 1620.52 341.408C1620.74 341.306 1620.91 341.136 1621.01 340.915Z" fill="white" fill-opacity="0.2"/>
<path d="M1791.99 408.591C1792.45 407.57 1791.47 406.583 1790.45 407.043C1790.22 407.145 1790.05 407.315 1789.95 407.536C1789.49 408.557 1790.48 409.544 1791.5 409.084C1791.72 408.982 1791.89 408.812 1791.99 408.591Z" fill="white" fill-opacity="0.2"/>
<path d="M1225.21 542.717C1225.68 541.697 1224.68 540.71 1223.66 541.169C1223.44 541.271 1223.27 541.441 1223.17 541.663C1222.71 542.683 1223.7 543.67 1224.71 543.211C1224.94 543.109 1225.1 542.939 1225.21 542.717Z" fill="white" fill-opacity="0.2"/>
<path d="M1610.12 706.398C1610.6 705.377 1609.59 704.39 1608.58 704.849C1608.36 704.951 1608.19 705.122 1608.08 705.343C1607.63 706.364 1608.61 707.35 1609.63 706.891C1609.85 706.789 1610.02 706.619 1610.12 706.398Z" fill="white" fill-opacity="0.2"/>
<path d="M1969.31 745.044C1969.77 744.023 1968.79 743.037 1967.77 743.496C1967.55 743.598 1967.38 743.768 1967.28 743.989C1966.8 745.01 1967.8 745.997 1968.82 745.537C1969.04 745.435 1969.21 745.265 1969.31 745.044Z" fill="white" fill-opacity="0.2"/>
<path d="M1119.08 324.477C1119.56 323.457 1118.56 322.47 1117.54 322.929C1117.32 323.031 1117.15 323.201 1117.05 323.423C1116.59 324.443 1117.57 325.43 1118.59 324.971C1118.81 324.869 1118.98 324.699 1119.08 324.477Z" fill="white" fill-opacity="0.4"/>
<path d="M1107.68 629.157C1108.14 628.137 1107.16 627.15 1106.14 627.609C1105.92 627.711 1105.75 627.881 1105.65 628.103C1105.17 629.123 1106.17 630.11 1107.19 629.651C1107.41 629.549 1107.58 629.379 1107.68 629.157Z" fill="white" fill-opacity="0.2"/>
<path d="M1521.52 361.841C1521.98 360.823 1520.99 359.839 1519.97 360.297C1519.75 360.399 1519.58 360.568 1519.48 360.789C1519.01 361.807 1520.01 362.808 1521.03 362.333C1521.25 362.231 1521.42 362.061 1521.52 361.841Z" fill="white" fill-opacity="0.2"/>
<path d="M1364.83 775.708C1365.29 774.687 1364.3 773.7 1363.29 774.159C1363.07 774.262 1362.9 774.432 1362.79 774.653C1362.32 775.674 1363.32 776.66 1364.34 776.201C1364.56 776.099 1364.73 775.929 1364.83 775.708Z" fill="white" fill-opacity="0.2"/>
<path d="M1802.87 482.068C1801.85 481.593 1800.86 482.594 1801.32 483.612C1801.42 483.833 1801.59 484.003 1801.81 484.105C1802.83 484.563 1803.82 483.579 1803.36 482.56C1803.26 482.34 1803.09 482.17 1802.87 482.068Z" fill="white" fill-opacity="0.2"/>
<path d="M981.963 459.625C982.421 458.605 981.437 457.618 980.418 458.077C980.198 458.179 980.028 458.349 979.926 458.571C979.451 459.591 980.452 460.578 981.47 460.119C981.691 460.017 981.861 459.847 981.963 459.625Z" fill="white" fill-opacity="0.2"/>
<path d="M1073.78 391.834C1074.25 390.813 1073.25 389.826 1072.23 390.286C1072.01 390.388 1071.84 390.558 1071.74 390.779C1071.28 391.8 1072.27 392.787 1073.28 392.327C1073.51 392.225 1073.68 392.055 1073.78 391.834Z" fill="white" fill-opacity="0.2"/>
<path d="M1714.85 766.668C1715.31 765.647 1714.33 764.66 1713.3 765.119C1713.08 765.221 1712.91 765.392 1712.81 765.613C1712.35 766.634 1713.34 767.62 1714.36 767.161C1714.58 767.059 1714.75 766.889 1714.85 766.668Z" fill="white" fill-opacity="0.2"/>
<path d="M1254.1 377.146C1253.62 376.125 1254.62 375.139 1255.64 375.598C1255.86 375.7 1256.03 375.87 1256.13 376.091C1256.59 377.112 1255.61 378.099 1254.59 377.639C1254.37 377.537 1254.2 377.367 1254.1 377.146Z" fill="white" fill-opacity="0.4"/>
<path d="M1805.87 592.731C1805.41 591.71 1806.39 590.723 1807.41 591.183C1807.63 591.285 1807.8 591.455 1807.9 591.676C1808.38 592.697 1807.38 593.684 1806.36 593.224C1806.14 593.122 1805.97 592.952 1805.87 592.731Z" fill="white" fill-opacity="0.2"/>
<path d="M1752.29 528.332C1751.81 527.311 1752.81 526.324 1753.83 526.783C1754.05 526.886 1754.22 527.056 1754.32 527.277C1754.78 528.298 1753.8 529.284 1752.78 528.825C1752.56 528.723 1752.39 528.553 1752.29 528.332Z" fill="white" fill-opacity="0.4"/>
<path d="M1851.16 692.66C1850.7 691.639 1851.69 690.652 1852.71 691.112C1852.93 691.214 1853.1 691.384 1853.2 691.605C1853.67 692.626 1852.67 693.613 1851.65 693.153C1851.43 693.051 1851.26 692.881 1851.16 692.66Z" fill="white" fill-opacity="0.2"/>
<path d="M1953.68 614.213C1952.66 614.672 1951.67 613.685 1952.13 612.664C1952.23 612.443 1952.4 612.273 1952.62 612.171C1953.65 611.712 1954.63 612.698 1954.17 613.719C1954.07 613.94 1953.9 614.111 1953.68 614.213Z" fill="white" fill-opacity="0.4"/>
<path d="M1898.34 540.932C1897.32 541.407 1896.34 540.406 1896.8 539.388C1896.9 539.167 1897.07 538.997 1897.29 538.896C1898.31 538.437 1899.3 539.422 1898.84 540.44C1898.74 540.66 1898.57 540.83 1898.34 540.932Z" fill="white" fill-opacity="0.2"/>
<path d="M1007.53 348.188C1007.07 347.167 1008.06 346.18 1009.08 346.639C1009.3 346.741 1009.47 346.912 1009.57 347.133C1010.03 348.154 1009.04 349.14 1008.02 348.681C1007.8 348.579 1007.63 348.409 1007.53 348.188Z" fill="white" fill-opacity="0.2"/>
<path d="M1433.04 670.026C1432.57 669.008 1433.57 668.006 1434.59 668.482C1434.81 668.583 1434.98 668.753 1435.08 668.974C1435.54 669.992 1434.55 670.976 1433.54 670.518C1433.32 670.416 1433.15 670.246 1433.04 670.026Z" fill="white" fill-opacity="0.2"/>
<path d="M1277.62 437.025C1277.16 436.004 1278.15 435.018 1279.17 435.477C1279.39 435.579 1279.56 435.749 1279.67 435.97C1280.12 436.991 1279.14 437.978 1278.12 437.519C1277.9 437.417 1277.73 437.246 1277.62 437.025Z" fill="white" fill-opacity="0.4"/>
<path d="M1157.96 467.697C1157.5 466.677 1158.49 465.69 1159.5 466.149C1159.72 466.251 1159.89 466.421 1160 466.643C1160.47 467.663 1159.47 468.65 1158.45 468.191C1158.23 468.089 1158.06 467.919 1157.96 467.697Z" fill="white" fill-opacity="0.2"/>
<path d="M1290.77 517.391C1290.3 516.37 1291.3 515.384 1292.31 515.843C1292.53 515.945 1292.7 516.115 1292.81 516.336C1293.26 517.357 1292.28 518.344 1291.26 517.885C1291.04 517.783 1290.87 517.612 1290.77 517.391Z" fill="white" fill-opacity="0.2"/>
<path d="M1039.03 508.613C1038.57 507.595 1039.56 506.611 1040.57 507.069C1040.79 507.171 1040.96 507.341 1041.07 507.561C1041.54 508.579 1040.54 509.58 1039.52 509.105C1039.3 509.003 1039.13 508.834 1039.03 508.613Z" fill="white" fill-opacity="0.2"/>
<path d="M1466.58 750.776C1466.13 749.756 1467.11 748.769 1468.13 749.228C1468.35 749.33 1468.52 749.5 1468.63 749.722C1469.09 750.742 1468.1 751.729 1467.08 751.27C1466.86 751.168 1466.69 750.998 1466.58 750.776Z" fill="white" fill-opacity="0.2"/>
<path d="M2041.56 479.552C2040.54 480.027 2039.56 479.026 2040.01 478.008C2040.12 477.787 2040.29 477.618 2040.51 477.516C2041.53 477.058 2042.52 478.042 2042.06 479.06C2041.95 479.28 2041.78 479.45 2041.56 479.552Z" fill="white" fill-opacity="0.2"/>
<path d="M518.442 556.358C517.967 555.337 518.968 554.35 519.986 554.809C520.207 554.911 520.376 555.082 520.478 555.303C520.936 556.324 519.952 557.31 518.934 556.851C518.714 556.749 518.544 556.579 518.442 556.358Z" fill="white" fill-opacity="0.2"/>
<path d="M984.473 888.264C983.998 887.243 984.999 886.257 986.017 886.716C986.238 886.818 986.408 886.988 986.509 887.209C986.968 888.23 985.983 889.217 984.965 888.758C984.745 888.656 984.575 888.485 984.473 888.264Z" fill="white" fill-opacity="0.2"/>
<path d="M763.965 876.898C763.49 875.877 764.491 874.89 765.51 875.349C765.73 875.451 765.9 875.622 766.002 875.843C766.46 876.864 765.476 877.85 764.458 877.391C764.237 877.289 764.067 877.119 763.965 876.898Z" fill="white" fill-opacity="0.4"/>
<path d="M975.38 804.151C974.904 803.13 975.906 802.143 976.924 802.603C977.144 802.705 977.314 802.875 977.416 803.096C977.874 804.117 976.89 805.104 975.872 804.644C975.651 804.542 975.481 804.372 975.38 804.151Z" fill="white" fill-opacity="0.2"/>
<path d="M709.77 622.626C709.295 621.605 710.296 620.619 711.314 621.078C711.535 621.18 711.705 621.35 711.806 621.571C712.264 622.592 711.28 623.579 710.262 623.119C710.042 623.017 709.872 622.847 709.77 622.626Z" fill="white" fill-opacity="0.2"/>
<path d="M972.825 617.893C972.35 616.872 973.351 615.885 974.369 616.345C974.59 616.447 974.759 616.617 974.861 616.838C975.319 617.859 974.335 618.846 973.317 618.386C973.096 618.284 972.927 618.114 972.825 617.893Z" fill="white" fill-opacity="0.2"/>
<path d="M819.725 755.034C819.266 754.014 820.253 753.027 821.274 753.486C821.495 753.588 821.665 753.758 821.767 753.979C822.226 755 821.24 755.987 820.219 755.528C819.998 755.426 819.827 755.255 819.725 755.034Z" fill="white" fill-opacity="0.2"/>
<path d="M1643.5 97.1442C1643.96 96.1234 1642.98 95.1366 1641.96 95.596C1641.74 95.698 1641.57 95.8682 1641.47 96.0893C1640.99 97.1101 1641.99 98.0969 1643.01 97.6375C1643.23 97.5355 1643.4 97.3653 1643.5 97.1442Z" fill="white" fill-opacity="0.2"/>
<path d="M1575.31 299.471C1575.76 298.45 1574.78 297.463 1573.76 297.923C1573.54 298.025 1573.37 298.195 1573.27 298.416C1572.8 299.437 1573.8 300.424 1574.81 299.964C1575.03 299.862 1575.2 299.692 1575.31 299.471Z" fill="white" fill-opacity="0.4"/>
<path d="M1359.57 192.571C1359.11 191.55 1360.09 190.563 1361.11 191.023C1361.33 191.125 1361.5 191.295 1361.6 191.516C1362.08 192.537 1361.08 193.524 1360.06 193.064C1359.84 192.962 1359.67 192.792 1359.57 192.571Z" fill="white" fill-opacity="0.2"/>
<path d="M1544.91 201.256C1544.45 200.235 1545.43 199.248 1546.45 199.708C1546.67 199.81 1546.84 199.98 1546.95 200.201C1547.41 201.222 1546.42 202.208 1545.4 201.749C1545.18 201.647 1545.01 201.477 1544.91 201.256Z" fill="white" fill-opacity="0.2"/>
<path d="M1657.38 265.371C1656.9 264.35 1657.91 263.363 1658.92 263.823C1659.14 263.925 1659.31 264.095 1659.42 264.316C1659.87 265.337 1658.89 266.323 1657.87 265.864C1657.65 265.762 1657.48 265.592 1657.38 265.371Z" fill="white" fill-opacity="0.2"/>
<path d="M1436.87 254.004C1436.4 252.983 1437.4 251.996 1438.42 252.456C1438.64 252.558 1438.81 252.728 1438.91 252.949C1439.37 253.97 1438.38 254.957 1437.36 254.497C1437.14 254.395 1436.97 254.225 1436.87 254.004Z" fill="white" fill-opacity="0.4"/>
<path d="M1648.29 181.257C1647.81 180.237 1648.81 179.25 1649.83 179.709C1650.05 179.811 1650.22 179.981 1650.32 180.203C1650.78 181.223 1649.8 182.21 1648.78 181.751C1648.56 181.649 1648.39 181.479 1648.29 181.257Z" fill="white" fill-opacity="0.2"/>
<path d="M1492.63 132.141C1492.17 131.12 1493.16 130.133 1494.18 130.593C1494.4 130.695 1494.57 130.865 1494.67 131.086C1495.13 132.107 1494.15 133.094 1493.12 132.634C1492.9 132.532 1492.73 132.362 1492.63 132.141Z" fill="white" fill-opacity="0.2"/>
<path d="M453.108 714.43C452.649 713.409 453.636 712.422 454.656 712.882C454.878 712.984 455.048 713.154 455.15 713.375C455.609 714.396 454.622 715.383 453.602 714.923C453.38 714.821 453.21 714.651 453.108 714.43Z" fill="white" fill-opacity="0.4"/>
<path d="M188.803 176.711C188.344 175.69 189.331 174.703 190.352 175.163C190.573 175.265 190.743 175.435 190.845 175.656C191.304 176.677 190.318 177.664 189.297 177.204C189.076 177.102 188.906 176.932 188.803 176.711Z" fill="white" fill-opacity="0.2"/>
<path d="M740.741 63.004C740.283 61.9859 741.267 61.0018 742.285 61.4599C742.505 61.5617 742.675 61.7314 742.777 61.952C743.252 62.97 742.251 63.9711 741.233 63.496C741.012 63.3942 740.842 63.2245 740.741 63.004Z" fill="white" fill-opacity="0.2"/>
<path d="M496.678 20.8231C496.219 19.8023 497.206 18.8156 498.227 19.2749C498.448 19.377 498.618 19.5471 498.72 19.7683C499.179 20.7891 498.193 21.7759 497.172 21.3165C496.951 21.2144 496.781 21.0443 496.678 20.8231Z" fill="white" fill-opacity="0.2"/>
<path d="M495.708 110.784C495.233 109.763 496.234 108.776 497.252 109.236C497.472 109.338 497.642 109.508 497.744 109.729C498.202 110.75 497.218 111.737 496.2 111.277C495.979 111.175 495.809 111.005 495.708 110.784Z" fill="white" fill-opacity="0.2"/>
<path d="M873.083 126.697C872.608 125.677 873.609 124.69 874.627 125.149C874.847 125.251 875.017 125.421 875.119 125.643C875.577 126.663 874.593 127.65 873.575 127.191C873.354 127.089 873.184 126.919 873.083 126.697Z" fill="white" fill-opacity="0.2"/>
<path d="M288.827 329.024C288.368 328.003 289.354 327.016 290.375 327.476C290.596 327.578 290.766 327.748 290.869 327.969C291.328 328.99 290.341 329.977 289.32 329.517C289.099 329.415 288.929 329.245 288.827 329.024Z" fill="white" fill-opacity="0.2"/>
<path d="M169.975 300.465C169.517 299.445 170.501 298.458 171.519 298.917C171.74 299.019 171.909 299.189 172.011 299.411C172.486 300.431 171.485 301.418 170.467 300.959C170.246 300.857 170.077 300.687 169.975 300.465Z" fill="white" fill-opacity="0.2"/>
</svg>
