<svg width="19" height="19" viewBox="0 0 19 19" fill="none" xmlns="http://www.w3.org/2000/svg">
<g id="svg-1302684513_418">
<path id="Vector" d="M3.773 2.5C3.07 2.5 2.5 3.07 2.5 3.773V15.227C2.5 15.931 3.07 16.5 3.773 16.5H15.227C15.931 16.5 16.5 15.93 16.5 15.227V3.773C16.5 3.07 15.93 2.5 15.227 2.5H3.773ZM5.458 5.682H8.393L10.105 8.13L12.225 5.682H13.148L10.52 8.724L13.735 13.318H10.8L8.9 10.601L6.553 13.318H5.615L8.482 10.006L5.458 5.682ZM6.878 6.435L11.175 12.561H12.314L8.014 6.435H6.878Z" fill="white"/>
</g>
</svg>
