<svg width="48" height="48" viewBox="0 0 48 48" fill="none" xmlns="http://www.w3.org/2000/svg">
<g filter="url(#filter0_d_1417_18565)">
<rect x="2" y="1" width="44" height="44" rx="8" fill="white"/>
<rect x="2.5" y="1.5" width="43" height="43" rx="7.5" stroke="#D0D5DD"/>
<path d="M20.2918 31.125C27.8371 31.125 31.9652 24.8723 31.9652 19.4516C31.9652 19.2758 31.9613 19.0961 31.9535 18.9203C32.7566 18.3396 33.4496 17.6202 34 16.7961C33.2521 17.1288 32.458 17.3462 31.6449 17.4406C32.5011 16.9274 33.1421 16.1212 33.4492 15.1715C32.6438 15.6488 31.763 15.9855 30.8445 16.1672C30.2257 15.5096 29.4075 15.0743 28.5164 14.9284C27.6253 14.7825 26.711 14.9342 25.9148 15.3601C25.1186 15.786 24.4848 16.4623 24.1115 17.2844C23.7382 18.1066 23.6462 19.0288 23.8496 19.9086C22.2187 19.8267 20.6233 19.4031 19.1667 18.6651C17.71 17.9271 16.4247 16.8912 15.3941 15.6246C14.8703 16.5277 14.71 17.5964 14.9459 18.6134C15.1817 19.6304 15.7959 20.5195 16.6637 21.1C16.0122 21.0793 15.375 20.9039 14.8047 20.5883V20.6391C14.8041 21.5868 15.1317 22.5055 15.7319 23.239C16.3321 23.9725 17.1678 24.4755 18.0969 24.6625C17.4934 24.8276 16.86 24.8517 16.2457 24.7328C16.5079 25.5479 17.018 26.2607 17.7048 26.7719C18.3916 27.2831 19.2209 27.5672 20.077 27.5844C18.6237 28.7259 16.8285 29.3451 14.9805 29.3422C14.6527 29.3417 14.3253 29.3216 14 29.282C15.8774 30.4865 18.0613 31.1262 20.2918 31.125Z" fill="#98A2B3"/>
</g>
<defs>
<filter id="filter0_d_1417_18565" x="0" y="0" width="48" height="48" filterUnits="userSpaceOnUse" color-interpolation-filters="sRGB">
<feFlood flood-opacity="0" result="BackgroundImageFix"/>
<feColorMatrix in="SourceAlpha" type="matrix" values="0 0 0 0 0 0 0 0 0 0 0 0 0 0 0 0 0 0 127 0" result="hardAlpha"/>
<feOffset dy="1"/>
<feGaussianBlur stdDeviation="1"/>
<feColorMatrix type="matrix" values="0 0 0 0 0.0627451 0 0 0 0 0.0941176 0 0 0 0 0.156863 0 0 0 0.05 0"/>
<feBlend mode="normal" in2="BackgroundImageFix" result="effect1_dropShadow_1417_18565"/>
<feBlend mode="normal" in="SourceGraphic" in2="effect1_dropShadow_1417_18565" result="shape"/>
</filter>
</defs>
</svg>
